<?xml version="1.0" standalone="no"?>
<!DOCTYPE svg PUBLIC "-//W3C//DTD SVG 20010904//EN"
 "http://www.w3.org/TR/2001/REC-SVG-20010904/DTD/svg10.dtd">
<svg version="1.0" xmlns="http://www.w3.org/2000/svg"
 width="1901.000000pt" height="1901.000000pt" viewBox="0 0 1901.000000 1901.000000"
 preserveAspectRatio="xMidYMid meet">
<metadata>
Created by potrace 1.11, written by Peter Selinger 2001-2013
</metadata>
<g transform="translate(0.000000,1901.000000) scale(0.100000,-0.100000)"
fill="#000000" stroke="none">
<path d="M9249 18478 c-23 -43 -279 -486 -299 -518 -5 -8 -30 -51 -55 -95 -25
-44 -57 -100 -71 -125 -15 -25 -38 -65 -52 -90 -13 -25 -28 -49 -32 -55 -5 -5
-23 -37 -40 -70 -18 -33 -38 -67 -44 -75 -6 -8 -19 -28 -28 -45 -17 -31 -370
-647 -416 -725 -46 -79 -55 -95 -136 -236 -43 -77 -89 -155 -101 -174 -12 -19
-87 -147 -165 -285 -79 -137 -162 -281 -185 -320 -23 -38 -45 -77 -48 -85 -4
-8 -15 -28 -26 -45 -34 -56 -237 -410 -244 -425 -4 -8 -14 -25 -23 -38 l-17
-22 999 2 999 3 0 1723 c0 947 -1 1722 -2 1722 -1 0 -8 -10 -14 -22z"/>
<path d="M2945 15894 c4 -16 11 -42 16 -59 9 -33 59 -221 64 -245 4 -15 36
-134 55 -200 12 -43 100 -370 134 -500 14 -52 36 -135 50 -185 13 -49 38 -142
54 -205 17 -63 56 -209 87 -325 31 -115 58 -217 60 -225 2 -8 34 -125 70 -260
37 -135 71 -262 76 -284 5 -21 27 -102 48 -180 21 -77 64 -238 96 -356 31
-118 71 -264 87 -324 16 -59 31 -115 33 -125 16 -68 89 -331 91 -329 19 17
2803 2803 2801 2804 -2 2 -676 183 -707 189 -25 6 -691 185 -745 201 -47 13
-347 94 -500 134 -38 10 -115 30 -170 45 -55 15 -107 29 -115 30 -23 6 -310
83 -350 95 -19 6 -188 51 -375 101 -602 160 -813 216 -848 227 -15 4 -17 0
-12 -24z"/>
<path d="M9087 14573 c-1 -1 -54 -4 -117 -7 -63 -4 -131 -8 -150 -11 -19 -2
-66 -7 -105 -10 -38 -3 -77 -8 -85 -10 -8 -2 -40 -6 -70 -10 -30 -3 -66 -7
-80 -10 -14 -2 -68 -11 -120 -20 -52 -9 -97 -18 -100 -20 -3 -2 -23 -6 -45 -9
-22 -4 -78 -16 -125 -27 -47 -11 -92 -22 -100 -24 -46 -10 -223 -62 -338 -100
-536 -177 -1070 -461 -1512 -803 -55 -43 -195 -155 -200 -161 -3 -3 -41 -37
-85 -76 -115 -100 -367 -355 -460 -465 -44 -52 -82 -97 -85 -100 -14 -12 -153
-194 -212 -276 -206 -286 -412 -649 -543 -959 -25 -60 -50 -119 -55 -130 -33
-77 -104 -284 -158 -460 -23 -74 -97 -375 -107 -435 -3 -19 -12 -71 -20 -115
-16 -90 -20 -116 -30 -195 -4 -30 -9 -62 -10 -71 -2 -9 -6 -52 -10 -95 -4 -43
-8 -90 -10 -103 -15 -93 -21 -482 -11 -676 13 -230 13 -236 37 -420 18 -135
19 -139 24 -165 3 -14 8 -41 11 -60 26 -163 108 -504 146 -610 3 -8 24 -71 46
-140 56 -171 62 -187 132 -351 170 -399 399 -792 656 -1125 100 -130 133 -170
249 -303 54 -62 317 -325 385 -385 30 -27 71 -63 90 -81 154 -139 474 -369
717 -515 179 -108 506 -273 663 -335 52 -21 109 -44 126 -51 17 -7 105 -38
195 -69 217 -74 449 -135 679 -180 69 -14 201 -35 245 -40 28 -3 61 -8 75 -10
14 -3 57 -8 95 -11 39 -3 81 -8 95 -10 91 -11 435 -23 447 -15 7 4 11 10192 4
10246 -1 8 -167 16 -174 8z"/>
<path d="M10264 14531 c-2 -2 -4 -2291 -4 -5087 l0 -5082 1233 1 1232 2 2
2113 c1 1163 4 2116 6 2119 4 3 3382 7 3555 3 l22 0 0 -2119 0 -2119 1225 0
c674 0 1225 3 1226 6 0 4 1 2290 2 5080 2 4502 0 5075 -13 5081 -11 5 -2357 7
-2427 2 -10 -1 -13 -414 -15 -2013 l-3 -2013 -1787 0 -1788 0 0 25 c-1 14 -1
919 -1 2013 -1 1841 -2 1987 -17 1988 -62 3 -2445 3 -2448 0z"/>
<path d="M3650 11569 c-8 -5 -55 -32 -105 -60 -49 -28 -106 -61 -125 -72 -19
-11 -62 -35 -95 -54 -33 -19 -67 -38 -75 -43 -53 -33 -151 -90 -154 -90 -2 0
-77 -43 -167 -95 -89 -52 -164 -95 -166 -95 -2 0 -20 -11 -41 -24 -20 -13
-127 -75 -237 -138 -367 -212 -988 -570 -1133 -655 -79 -45 -145 -83 -148 -83
-2 0 -23 -11 -45 -25 -22 -14 -99 -60 -172 -102 -73 -42 -145 -84 -162 -93
-16 -10 -75 -44 -130 -75 -55 -32 -140 -81 -190 -110 -49 -29 -132 -76 -182
-105 -51 -30 -92 -54 -90 -55 4 -4 391 -228 427 -248 19 -10 40 -23 45 -27 6
-4 33 -20 60 -35 54 -29 613 -351 865 -498 85 -50 241 -140 345 -200 105 -60
205 -118 222 -128 18 -11 50 -29 70 -40 21 -12 67 -38 103 -59 36 -21 81 -47
100 -57 19 -11 98 -57 174 -102 76 -44 141 -81 143 -81 2 0 20 -11 41 -23 20
-13 57 -35 82 -49 47 -27 260 -150 520 -301 215 -124 219 -127 230 -127 5 0 9
802 9 1980 -1 1089 -1 1980 -2 1979 -1 0 -9 -4 -17 -10z"/>
<path d="M3752 6802 c-34 -130 -98 -370 -142 -532 -44 -162 -82 -304 -84 -315
-2 -11 -25 -94 -50 -185 -25 -91 -49 -183 -55 -205 -5 -22 -37 -141 -71 -265
-34 -124 -63 -232 -65 -240 -2 -8 -30 -116 -63 -240 -73 -269 -121 -449 -127
-470 -2 -8 -15 -58 -29 -110 -14 -52 -41 -153 -61 -225 -20 -71 -38 -139 -40
-150 -2 -11 -13 -54 -25 -95 -66 -242 -148 -555 -146 -558 2 -1 88 20 192 48
104 28 230 62 279 75 50 13 167 44 260 70 94 25 177 48 185 49 8 2 119 32 245
66 127 34 322 86 435 116 113 30 239 64 280 75 148 41 296 80 350 94 30 7 114
30 185 50 127 35 141 39 188 51 12 3 27 6 32 8 6 2 24 6 40 11 147 38 524 139
580 155 69 19 226 61 455 121 63 17 116 32 118 33 2 3 -2713 2722 -2779 2783
l-24 22 -63 -237z"/>
<path d="M7275 3932 c-2 -2 14 -33 36 -68 21 -35 39 -66 39 -69 0 -2 25 -45
55 -95 30 -50 55 -93 55 -96 0 -2 20 -37 44 -77 24 -39 132 -227 241 -417 108
-190 206 -357 216 -372 10 -15 19 -29 19 -31 0 -3 30 -56 66 -118 37 -63 78
-134 92 -159 14 -25 55 -97 92 -160 37 -63 128 -221 202 -350 75 -129 145
-251 156 -270 12 -19 27 -46 35 -60 8 -14 49 -86 92 -160 43 -74 87 -150 97
-169 26 -46 192 -333 233 -401 17 -30 71 -124 119 -207 49 -84 91 -153 94
-153 4 0 7 772 7 1715 l0 1715 -25 1 c-85 3 -1962 3 -1965 1z"/>
</g>
</svg>
